<svg width="18" height="16" viewBox="0 0 18 16" fill="none" xmlns="http://www.w3.org/2000/svg">
<path d="M5.66064 15.3134C12.4531 15.3134 16.1683 9.68591 16.1683 4.80576C16.1683 4.64592 16.1683 4.4868 16.1575 4.3284C16.8803 3.80561 17.5042 3.15831 18 2.4168C17.326 2.71545 16.611 2.91131 15.8789 2.99784C16.6498 2.5363 17.2268 1.81039 17.5025 0.955196C16.7776 1.38536 15.9845 1.68852 15.1574 1.8516C14.6006 1.25953 13.8642 0.867477 13.0621 0.73611C12.2601 0.604742 11.4371 0.741382 10.7205 1.12489C10.0039 1.50839 9.43367 2.11738 9.09806 2.85761C8.76245 3.59784 8.68016 4.42804 8.86392 5.21976C7.39566 5.14615 5.95929 4.76459 4.64806 4.09986C3.33683 3.43513 2.18004 2.50208 1.2528 1.36128C0.780546 2.17427 0.635904 3.1367 0.848325 4.05259C1.06075 4.96849 1.61426 5.76899 2.39616 6.29112C1.80845 6.2737 1.23356 6.11516 0.72 5.82888C0.72 5.844 0.72 5.85984 0.72 5.87568C0.720233 6.72831 1.01539 7.55462 1.5554 8.21445C2.09542 8.87428 2.84705 9.327 3.6828 9.49583C3.13911 9.64411 2.56866 9.66579 2.01528 9.55919C2.25127 10.293 2.7107 10.9347 3.32933 11.3945C3.94796 11.8544 4.69484 12.1094 5.46552 12.1238C4.15781 13.1516 2.54236 13.7095 0.87912 13.7078C0.58529 13.7073 0.291747 13.6895 0 13.6546C1.68886 14.7384 3.65394 15.3132 5.66064 15.3106" fill="#262626"/>
</svg>
