<svg width="18" height="18" viewBox="0 0 18 18" fill="none" xmlns="http://www.w3.org/2000/svg">
<g clip-path="url(#clip0_7901_408)">
<path d="M17.0053 0H0.994737C0.445263 0 0 0.445263 0 0.994737V17.0053C0 17.5547 0.445263 18 0.994737 18H9.61579V11.0526H7.26316V8.31474H9.60316V6.31579C9.60316 3.98842 11.0211 2.72211 13.0958 2.72211C13.8 2.72526 14.5042 2.76316 15.2053 2.84211V5.27053H13.7716C12.6442 5.27053 12.4263 5.80421 12.4263 6.59053V8.32737H15.1263L14.7758 11.0526H12.4263V18H17.0053C17.5547 18 18 17.5547 18 17.0053V0.994737C18 0.445263 17.5547 0 17.0053 0Z" fill="#262626"/>
</g>
<defs>
<clipPath id="clip0_7901_408">
<rect width="18" height="18" fill="white"/>
</clipPath>
</defs>
</svg>
