<svg width="18" height="18" viewBox="0 0 18 18" fill="none" xmlns="http://www.w3.org/2000/svg">
<g clip-path="url(#clip0_7901_410)">
<path fill-rule="evenodd" clip-rule="evenodd" d="M9 1.62159C11.4033 1.62159 11.6876 1.63088 12.6369 1.6741C13.5143 1.71412 13.9909 1.86059 14.3081 1.98385C14.7282 2.14711 15.028 2.34217 15.3431 2.65692C15.6582 2.97202 15.8532 3.27176 16.0162 3.69189C16.1394 4.00913 16.2859 4.48571 16.3259 5.36314C16.3691 6.31201 16.3784 6.59674 16.3784 9.00001C16.3784 11.4033 16.3691 11.6876 16.3259 12.6369C16.2859 13.5143 16.1394 13.9909 16.0162 14.3081C15.8529 14.7283 15.6578 15.028 15.3431 15.3431C15.028 15.6582 14.7282 15.8533 14.3081 16.0162C13.9909 16.1394 13.5143 16.2859 12.6369 16.3259C11.688 16.3691 11.4033 16.3784 9 16.3784C6.59674 16.3784 6.312 16.3691 5.36313 16.3259C4.48571 16.2859 4.00913 16.1394 3.69189 16.0162C3.27175 15.8529 2.97202 15.6578 2.65692 15.3431C2.34182 15.028 2.14675 14.7283 1.98384 14.3081C1.86059 13.9909 1.71412 13.5143 1.6741 12.6369C1.63088 11.688 1.62159 11.4033 1.62159 9.00001C1.62159 6.59674 1.63088 6.31237 1.6741 5.36314C1.71412 4.48571 1.86059 4.00913 1.98384 3.69189C2.14711 3.27176 2.34217 2.97202 2.65692 2.65692C2.97202 2.34182 3.27175 2.14675 3.69189 1.98385C4.00913 1.86059 4.48571 1.71412 5.36313 1.6741C6.31236 1.63088 6.59674 1.62159 9 1.62159ZM9 0C6.55565 0 6.24913 0.0103604 5.28918 0.054303C4.33138 0.0978883 3.67724 0.25008 3.10456 0.47265C2.51258 0.702724 2.01064 1.01032 1.51048 1.51084C1.01032 2.011 0.702366 2.51294 0.47265 3.10456C0.250079 3.67724 0.0978882 4.33138 0.054303 5.28918C0.0103604 6.24913 0 6.55566 0 9.00001C0 11.4444 0.0103604 11.7509 0.054303 12.7108C0.0978882 13.6686 0.250079 14.3228 0.47265 14.8955C0.702723 15.4874 1.01032 15.9894 1.51084 16.4895C2.01135 16.9901 2.51294 17.2976 3.10491 17.5277C3.67724 17.7503 4.33173 17.9025 5.28954 17.9461C6.24948 17.99 6.55601 18.0004 9.00036 18.0004C11.4447 18.0004 11.7512 17.99 12.7112 17.9461C13.669 17.9025 14.3235 17.7503 14.8958 17.5277C15.4878 17.2976 15.9897 16.9901 16.4899 16.4895C16.9904 15.989 17.298 15.4874 17.5281 14.8955C17.7506 14.3231 17.9028 13.6686 17.9464 12.7108C17.9904 11.7509 18.0007 11.4444 18.0007 9.00001C18.0007 6.55566 17.9904 6.24913 17.9464 5.28918C17.9028 4.33138 17.7506 3.67689 17.5281 3.10456C17.298 2.51259 16.9904 2.01064 16.4899 1.51048C15.9894 1.00996 15.4878 0.702366 14.8958 0.472293C14.3228 0.25008 13.6686 0.0978883 12.7108 0.054303C11.7509 0.0103604 11.4443 0 9 0ZM9.0003 4.37849C6.4477 4.37849 4.37883 6.44772 4.37883 8.99996C4.37883 11.5522 6.44806 13.6214 9.0003 13.6214C11.5525 13.6214 13.6218 11.5522 13.6218 8.99996C13.6218 6.44772 11.5529 4.37849 9.0003 4.37849ZM9.0003 11.9998C7.34335 11.9998 6.00042 10.6566 6.00042 8.99996C6.00042 7.343 7.3437 6.00008 9.0003 6.00008C10.6569 6.00008 12.0002 7.34336 12.0002 8.99996C12.0002 10.6569 10.6573 11.9998 9.0003 11.9998ZM14.8844 4.19555C14.8844 4.792 14.4009 5.27553 13.8044 5.27553C13.208 5.27553 12.7245 4.792 12.7245 4.19555C12.7245 3.59909 13.208 3.11556 13.8044 3.11556C14.4009 3.11556 14.8844 3.59909 14.8844 4.19555Z" fill="#262626"/>
</g>
<defs>
<clipPath id="clip0_7901_410">
<rect width="18" height="18" fill="white"/>
</clipPath>
</defs>
</svg>
