<svg width="18" height="18" viewBox="0 0 18 18" fill="none" xmlns="http://www.w3.org/2000/svg">
<path d="M5.66064 16.3134C12.4531 16.3134 16.1683 10.6859 16.1683 5.80576C16.1683 5.64592 16.1683 5.4868 16.1575 5.3284C16.8803 4.80561 17.5042 4.15831 18 3.4168C17.326 3.71545 16.611 3.91131 15.8789 3.99784C16.6498 3.5363 17.2268 2.81039 17.5025 1.9552C16.7776 2.38536 15.9845 2.68852 15.1574 2.8516C14.6006 2.25953 13.8642 1.86748 13.0621 1.73611C12.2601 1.60474 11.4371 1.74138 10.7205 2.12489C10.0039 2.50839 9.43367 3.11738 9.09806 3.85761C8.76245 4.59784 8.68016 5.42804 8.86392 6.21976C7.39566 6.14615 5.95929 5.76459 4.64806 5.09986C3.33683 4.43513 2.18004 3.50208 1.2528 2.36128C0.780546 3.17427 0.635904 4.1367 0.848325 5.05259C1.06075 5.96849 1.61426 6.76899 2.39616 7.29112C1.80845 7.2737 1.23356 7.11516 0.72 6.82888C0.72 6.844 0.72 6.85984 0.72 6.87568C0.720233 7.72831 1.01539 8.55462 1.5554 9.21445C2.09542 9.87428 2.84705 10.327 3.6828 10.4958C3.13911 10.6441 2.56866 10.6658 2.01528 10.5592C2.25127 11.293 2.7107 11.9347 3.32933 12.3945C3.94796 12.8544 4.69484 13.1094 5.46552 13.1238C4.15781 14.1516 2.54236 14.7095 0.87912 14.7078C0.58529 14.7073 0.291747 14.6895 0 14.6546C1.68886 15.7384 3.65394 16.3132 5.66064 16.3106" fill="#262626"/>
</svg>
